<?xml version="1.0" encoding="utf-8"?>
<!-- Generator: Adobe Illustrator 16.0.0, SVG Export Plug-In . SVG Version: 6.00 Build 0)  -->
<!DOCTYPE svg PUBLIC "-//W3C//DTD SVG 1.1//EN" "http://www.w3.org/Graphics/SVG/1.1/DTD/svg11.dtd">
<svg version="1.1" id="Layer_1" xmlns="http://www.w3.org/2000/svg" xmlns:xlink="http://www.w3.org/1999/xlink" x="0px" y="0px"
	 width="960px" height="960px" viewBox="0 0 960 960" enable-background="new 0 0 960 960" xml:space="preserve">
<rect x="1960" fill="#353732" width="960" height="960"/>
<text transform="matrix(1 0 0 1 2472 512)" font-family="'MyriadPro-Regular'" font-size="12">ajnovember@gmail.com</text>
<g>
	<g>
		<g>
			<path fill="#EE5145" d="M1368.537-429.723c0,9.648-7.84,17.478-17.488,17.478l0,0c-9.648,0-17.49-7.829-17.49-17.478v-182.803
				c0-9.648,7.842-17.447,17.49-17.447l0,0c9.648,0,17.488,7.799,17.488,17.447V-429.723z"/>
		</g>
		<g>
			<path fill="#EE5145" d="M1437.257-368.031c0,9.648-7.867,17.477-17.479,17.477l0,0c-9.66,0-17.475-7.828-17.475-17.477v-158.152
				c0-9.633,7.814-17.436,17.475-17.436l0,0c9.611,0,17.479,7.803,17.479,17.436V-368.031z"/>
		</g>
		<g>
			<path fill="#EE5145" d="M1509.155-415.176c0,9.654-7.865,17.488-17.502,17.488l0,0c-9.631,0-17.447-7.834-17.447-17.488v-219.803
				c0-9.638,7.816-17.477,17.447-17.477l0,0c9.637,0,17.502,7.839,17.502,17.477V-415.176z"/>
		</g>
		<g>
			<path fill="#EE5145" d="M1583.085-380.344c0,9.618-7.828,17.446-17.479,17.446l0,0c-9.648,0-17.447-7.828-17.447-17.446v-195.178
				c0-9.648,7.799-17.446,17.447-17.446l0,0c9.65,0,17.479,7.798,17.479,17.446V-380.344z"/>
		</g>
		<g>
			<path fill="#EE5145" d="M1509.155-693.049c0,9.623-7.84,17.451-17.461,17.451c-9.662,0-17.488-7.828-17.488-17.451
				c0-9.659,7.826-17.462,17.488-17.462C1501.315-710.511,1509.155-702.708,1509.155-693.049z"/>
		</g>
		<g>
			<path fill="#EE5145" d="M1647.255-519.577c0,9.648-7.859,17.508-17.465,17.508c-9.674,0-17.477-7.859-17.477-17.508
				c0-9.634,7.803-17.431,17.477-17.431C1639.396-537.008,1647.255-529.211,1647.255-519.577z"/>
		</g>
		<g>
			<path fill="#EE5145" d="M1304.697-519.562c0,9.66-7.869,17.493-17.475,17.493c-9.637,0-17.479-7.833-17.479-17.493
				c0-9.648,7.842-17.445,17.479-17.445C1296.828-537.008,1304.697-529.211,1304.697-519.562z"/>
		</g>
	</g>
	<g>
		<path fill="#EE5145" d="M1460.003-172.266c-193.232,0-350.461-157.196-350.461-350.441c0-193.249,157.229-350.445,350.461-350.445
			c193.229,0,350.455,157.196,350.455,350.445C1810.458-329.462,1653.231-172.266,1460.003-172.266z M1460.003-842.254
			c-176.197,0-319.535,143.365-319.535,319.547c0,176.178,143.338,319.542,319.535,319.542
			c176.191,0,319.525-143.364,319.525-319.542C1779.528-698.889,1636.194-842.254,1460.003-842.254z"/>
	</g>
</g>
<g>
	<g>
		<g>
			<path fill="#D8CBBC" d="M2348.537-407.014c0,9.648-7.84,17.478-17.488,17.478l0,0c-9.648,0-17.49-7.829-17.49-17.478v-182.803
				c0-9.648,7.842-17.447,17.49-17.447l0,0c9.648,0,17.488,7.799,17.488,17.447V-407.014z"/>
		</g>
		<g>
			<path fill="#D8CBBC" d="M2417.257-345.322c0,9.648-7.867,17.477-17.479,17.477l0,0c-9.66,0-17.475-7.828-17.475-17.477v-158.152
				c0-9.633,7.814-17.436,17.475-17.436l0,0c9.611,0,17.479,7.803,17.479,17.436V-345.322z"/>
		</g>
		<g>
			<path fill="#D8CBBC" d="M2489.155-392.467c0,9.654-7.865,17.488-17.502,17.488l0,0c-9.631,0-17.447-7.834-17.447-17.488V-612.27
				c0-9.638,7.816-17.477,17.447-17.477l0,0c9.637,0,17.502,7.839,17.502,17.477V-392.467z"/>
		</g>
		<g>
			<path fill="#D8CBBC" d="M2563.085-357.635c0,9.618-7.828,17.446-17.479,17.446l0,0c-9.648,0-17.447-7.828-17.447-17.446v-195.178
				c0-9.648,7.799-17.446,17.447-17.446l0,0c9.65,0,17.479,7.798,17.479,17.446V-357.635z"/>
		</g>
		<g>
			<path fill="#D8CBBC" d="M2489.155-670.34c0,9.623-7.84,17.451-17.461,17.451c-9.662,0-17.488-7.828-17.488-17.451
				c0-9.659,7.826-17.462,17.488-17.462C2481.315-687.802,2489.155-679.999,2489.155-670.34z"/>
		</g>
		<g>
			<path fill="#D8CBBC" d="M2627.255-496.868c0,9.648-7.859,17.508-17.465,17.508c-9.674,0-17.477-7.859-17.477-17.508
				c0-9.634,7.803-17.431,17.477-17.431C2619.396-514.299,2627.255-506.502,2627.255-496.868z"/>
		</g>
		<g>
			<path fill="#D8CBBC" d="M2284.697-496.854c0,9.66-7.869,17.493-17.475,17.493c-9.637,0-17.479-7.833-17.479-17.493
				c0-9.648,7.842-17.445,17.479-17.445C2276.828-514.299,2284.697-506.502,2284.697-496.854z"/>
		</g>
	</g>
	<g>
		<path fill="#D8CBBC" d="M2440.003-149.557c-193.232,0-350.461-157.196-350.461-350.441c0-193.249,157.229-350.445,350.461-350.445
			c193.229,0,350.455,157.196,350.455,350.445C2790.458-306.753,2633.231-149.557,2440.003-149.557z M2440.003-819.545
			c-176.197,0-319.535,143.365-319.535,319.547c0,176.178,143.338,319.542,319.535,319.542
			c176.191,0,319.525-143.364,319.525-319.542C2759.528-676.18,2616.194-819.545,2440.003-819.545z"/>
	</g>
</g>
<g>
	<g>
		<g>
			<path fill="#F6F9FA" d="M388.537,572.986c0,9.648-7.84,17.478-17.488,17.478l0,0c-9.648,0-17.49-7.829-17.49-17.478V390.184
				c0-9.648,7.842-17.447,17.49-17.447l0,0c9.648,0,17.488,7.799,17.488,17.447V572.986z"/>
		</g>
		<g>
			<path fill="#F6F9FA" d="M457.257,634.678c0,9.648-7.867,17.477-17.479,17.477l0,0c-9.66,0-17.475-7.828-17.475-17.477V476.525
				c0-9.633,7.814-17.436,17.475-17.436l0,0c9.611,0,17.479,7.803,17.479,17.436V634.678z"/>
		</g>
		<g>
			<path fill="#F6F9FA" d="M529.155,587.533c0,9.654-7.865,17.488-17.502,17.488l0,0c-9.631,0-17.447-7.834-17.447-17.488V367.73
				c0-9.638,7.816-17.477,17.447-17.477l0,0c9.637,0,17.502,7.839,17.502,17.477V587.533z"/>
		</g>
		<g>
			<path fill="#F6F9FA" d="M603.085,622.365c0,9.618-7.828,17.446-17.479,17.446l0,0c-9.648,0-17.447-7.828-17.447-17.446V427.188
				c0-9.648,7.799-17.446,17.447-17.446l0,0c9.65,0,17.479,7.798,17.479,17.446V622.365z"/>
		</g>
		<g>
			<path fill="#F6F9FA" d="M529.155,309.66c0,9.623-7.84,17.451-17.461,17.451c-9.662,0-17.488-7.828-17.488-17.451
				c0-9.659,7.826-17.462,17.488-17.462C521.315,292.198,529.155,300.001,529.155,309.66z"/>
		</g>
		<g>
			<path fill="#F6F9FA" d="M667.255,483.132c0,9.648-7.859,17.508-17.465,17.508c-9.674,0-17.477-7.859-17.477-17.508
				c0-9.634,7.803-17.431,17.477-17.431C659.396,465.701,667.255,473.498,667.255,483.132z"/>
		</g>
		<g>
			<path fill="#F6F9FA" d="M324.697,483.146c0,9.66-7.869,17.493-17.475,17.493c-9.637,0-17.479-7.833-17.479-17.493
				c0-9.648,7.842-17.445,17.479-17.445C316.828,465.701,324.697,473.498,324.697,483.146z"/>
		</g>
	</g>
	<g>
		<path fill="#F6F9FA" d="M480.003,830.443c-193.232,0-350.461-157.196-350.461-350.441c0-193.249,157.229-350.445,350.461-350.445
			c193.229,0,350.455,157.196,350.455,350.445C830.458,673.247,673.231,830.443,480.003,830.443z M480.003,160.455
			c-176.197,0-319.535,143.365-319.535,319.547c0,176.178,143.338,319.542,319.535,319.542
			c176.191,0,319.525-143.364,319.525-319.542C799.528,303.82,656.194,160.455,480.003,160.455z"/>
	</g>
</g>
<g>
	<g>
		<g>
			<path fill="#353732" d="M1368.537,572.986c0,9.648-7.84,17.478-17.488,17.478l0,0c-9.648,0-17.49-7.829-17.49-17.478V390.184
				c0-9.648,7.842-17.447,17.49-17.447l0,0c9.648,0,17.488,7.799,17.488,17.447V572.986z"/>
		</g>
		<g>
			<path fill="#353732" d="M1437.257,634.678c0,9.648-7.867,17.477-17.479,17.477l0,0c-9.66,0-17.475-7.828-17.475-17.477V476.525
				c0-9.633,7.814-17.436,17.475-17.436l0,0c9.611,0,17.479,7.803,17.479,17.436V634.678z"/>
		</g>
		<g>
			<path fill="#353732" d="M1509.155,587.533c0,9.654-7.865,17.488-17.502,17.488l0,0c-9.631,0-17.447-7.834-17.447-17.488V367.73
				c0-9.638,7.816-17.477,17.447-17.477l0,0c9.637,0,17.502,7.839,17.502,17.477V587.533z"/>
		</g>
		<g>
			<path fill="#353732" d="M1583.084,622.365c0,9.618-7.827,17.446-17.478,17.446l0,0c-9.648,0-17.447-7.828-17.447-17.446V427.188
				c0-9.648,7.799-17.446,17.447-17.446l0,0c9.65,0,17.478,7.798,17.478,17.446V622.365z"/>
		</g>
		<g>
			<path fill="#353732" d="M1509.155,309.66c0,9.623-7.841,17.451-17.461,17.451c-9.663,0-17.488-7.828-17.488-17.451
				c0-9.659,7.825-17.462,17.488-17.462C1501.314,292.198,1509.155,300.001,1509.155,309.66z"/>
		</g>
		<g>
			<path fill="#353732" d="M1647.255,483.132c0,9.648-7.859,17.508-17.465,17.508c-9.675,0-17.477-7.859-17.477-17.508
				c0-9.634,7.802-17.431,17.477-17.431C1639.396,465.701,1647.255,473.498,1647.255,483.132z"/>
		</g>
		<g>
			<path fill="#353732" d="M1304.697,483.146c0,9.66-7.869,17.493-17.475,17.493c-9.637,0-17.479-7.833-17.479-17.493
				c0-9.648,7.842-17.445,17.479-17.445C1296.828,465.701,1304.697,473.498,1304.697,483.146z"/>
		</g>
	</g>
	<g>
		<path fill="#353732" d="M1460.003,830.443c-193.232,0-350.461-157.196-350.461-350.441c0-193.249,157.229-350.445,350.461-350.445
			c193.228,0,350.456,157.196,350.456,350.445C1810.459,673.247,1653.23,830.443,1460.003,830.443z M1460.003,160.455
			c-176.197,0-319.536,143.365-319.536,319.547c0,176.178,143.339,319.542,319.536,319.542
			c176.191,0,319.525-143.364,319.525-319.542C1779.528,303.82,1636.194,160.455,1460.003,160.455z"/>
	</g>
</g>
<rect x="976.999" y="4110.364" fill="#353732" width="962.54" height="962.543"/>
<g>
	<path fill="#353732" d="M246.585-278.283h-13.418v-9.338c-5.792,6.922-13.555,10.393-23.293,10.393
		c-7.282,0-13.31-2.064-18.092-6.184s-7.167-9.629-7.167-16.514c0-6.883,2.541-12.037,7.632-15.463
		c5.081-3.422,11.966-5.127,20.653-5.127h19.08v-2.629c0-9.305-5.176-13.947-15.526-13.947c-6.491,0-13.25,2.365-20.266,7.1
		l-6.574-9.205c8.509-6.76,18.158-10.137,28.947-10.137c8.243,0,14.977,2.086,20.198,6.252c5.218,4.162,7.825,10.727,7.825,19.666
		V-278.283z M231.85-304.332v-5.922h-16.581c-10.611,0-15.923,3.336-15.923,10c0,3.412,1.317,6.027,3.946,7.824
		c2.635,1.805,6.3,2.703,10.987,2.703c4.69,0,8.799-1.318,12.307-3.947C230.093-296.309,231.85-299.861,231.85-304.332z"/>
	<path fill="#353732" d="M316.051-310.385v-37.893h14.741v69.994h-14.741v-12.762c-2.362,4.297-5.63,7.668-9.802,10.131
		c-4.166,2.457-8.656,3.686-13.48,3.686c-7.893,0-14.275-2.42-19.143-7.234c-4.871-4.83-7.308-11.803-7.308-20.92v-42.895h14.741
		v38.42c0,12.891,5.354,19.342,16.048,19.342c5.085,0,9.519-1.693,13.288-5.07C314.169-298.963,316.051-303.898,316.051-310.385z"/>
	<path fill="#353732" d="M357.498-287.229c-6.581-6.67-9.863-15.441-9.863-26.314c0-10.877,3.372-19.564,10.13-26.059
		c6.754-6.486,14.804-9.732,24.139-9.732c9.347,0,16.864,3.947,22.572,11.842v-38.418h14.73v97.627h-14.73v-10.523
		c-5.442,7.715-13.381,11.578-23.821,11.578C371.8-277.229,364.08-280.557,357.498-287.229z M362.365-312.951
		c0,6.707,2.153,12.17,6.451,16.377c4.296,4.207,9.345,6.314,15.127,6.314c5.797,0,10.706-2.123,14.74-6.379
		c4.036-4.258,6.054-9.711,6.054-16.375c0-6.67-2.018-12.238-6.054-16.713c-4.034-4.479-8.995-6.717-14.865-6.717
		c-5.882,0-10.921,2.238-15.139,6.717C364.472-325.252,362.365-319.664,362.365-312.951z"/>
	<path fill="#353732" d="M535.133-287.693c-7.021,6.973-15.792,10.465-26.314,10.465c-10.528,0-19.295-3.492-26.314-10.465
		c-7.021-6.975-10.533-15.498-10.533-25.592c0-10.084,3.512-18.609,10.533-25.584c7.02-6.979,15.786-10.465,26.314-10.465
		c10.522,0,19.294,3.486,26.314,10.465c7.02,6.975,10.522,15.5,10.522,25.584C545.655-303.191,542.152-294.668,535.133-287.693z
		 M492.964-296.768c4.166,4.256,9.451,6.381,15.854,6.381s11.688-2.125,15.854-6.381s6.252-9.76,6.252-16.518
		c0-6.748-2.086-12.26-6.252-16.508c-4.166-4.256-9.451-6.377-15.854-6.377s-11.688,2.121-15.854,6.377
		c-4.167,4.248-6.252,9.76-6.252,16.508C486.712-306.527,488.797-301.023,492.964-296.768z"/>
	<path fill="#353732" d="M621.184-299.34c4.209,4.914,9.906,7.371,17.104,7.371c7.192,0,12.896-2.457,17.104-7.371
		c4.207-4.902,6.319-11.572,6.319-19.99v-50.922h15.514v51.57c0,13.248-3.639,23.445-10.914,30.596
		c-7.281,7.146-16.623,10.723-28.023,10.723c-11.407,0-20.746-3.576-28.028-10.723c-7.277-7.15-10.915-17.348-10.915-30.596v-51.57
		h15.521v50.922C614.865-310.912,616.965-304.242,621.184-299.34z"/>
	<path fill="#353732" d="M756.044-278.283l-22.63-34.605h-0.657l-22.635,34.605h-19.343l31.584-47.234l-29.34-44.734h19.209
		l20.524,31.055h0.657l20.528-31.055h19.204l-29.335,44.734l31.573,47.234H756.044z"/>
	<g>
		<path fill="#353732" d="M454.898-553.393c0,3.686-2.995,6.676-6.682,6.676l0,0c-3.686,0-6.68-2.99-6.68-6.676v-69.826
			c0-3.686,2.994-6.664,6.68-6.664l0,0c3.687,0,6.682,2.979,6.682,6.664V-553.393z"/>
	</g>
	<g>
		<path fill="#353732" d="M480-529.828c0,3.686-3.005,6.676-6.676,6.676l0,0c-3.691,0-6.675-2.99-6.675-6.676v-60.41
			c0-3.68,2.983-6.66,6.675-6.66l0,0c3.671,0,6.676,2.98,6.676,6.66V-529.828z"/>
	</g>
	<g>
		<path fill="#353732" d="M507.464-547.836c0,3.688-3.005,6.68-6.686,6.68l0,0c-3.679,0-6.664-2.992-6.664-6.68v-83.959
			c0-3.682,2.985-6.676,6.664-6.676l0,0c3.681,0,6.686,2.994,6.686,6.676V-547.836z"/>
	</g>
	<g>
		<path fill="#353732" d="M535.703-534.531c0,3.674-2.99,6.664-6.677,6.664l0,0c-3.686,0-6.664-2.99-6.664-6.664v-74.553
			c0-3.686,2.979-6.664,6.664-6.664l0,0c3.687,0,6.677,2.979,6.677,6.664V-534.531z"/>
	</g>
	<g>
		<path fill="#353732" d="M507.464-653.977c0,3.676-2.995,6.666-6.67,6.666c-3.69,0-6.68-2.99-6.68-6.666
			c0-3.689,2.989-6.67,6.68-6.67C504.469-660.646,507.464-657.666,507.464-653.977z"/>
	</g>
	<g>
		<path fill="#353732" d="M560.213-587.715c0,3.686-3.001,6.688-6.67,6.688c-3.695,0-6.676-3.002-6.676-6.688
			c0-3.68,2.98-6.658,6.676-6.658C557.212-594.373,560.213-591.395,560.213-587.715z"/>
	</g>
	<g>
		<path fill="#353732" d="M430.513-587.709c0,3.689-3.006,6.682-6.675,6.682c-3.681,0-6.676-2.992-6.676-6.682
			c0-3.686,2.995-6.664,6.676-6.664C427.507-594.373,430.513-591.395,430.513-587.709z"/>
	</g>
	<g>
		<path fill="#353732" d="M488.688-455.051c-73.81,0-133.867-60.045-133.867-133.859c0-73.816,60.058-133.861,133.867-133.861
			c73.809,0,133.865,60.045,133.865,133.861C622.554-515.096,562.497-455.051,488.688-455.051z M488.688-710.969
			c-67.303,0-122.054,54.762-122.054,122.059c0,67.295,54.751,122.057,122.054,122.057c67.301,0,122.051-54.762,122.051-122.057
			C610.739-656.207,555.989-710.969,488.688-710.969z"/>
	</g>
	<g>
		<path fill="#353732" d="M454.574-284.963c0,3.688-3.005,6.68-6.686,6.68l0,0c-3.679,0-6.664-2.992-6.664-6.68v-62.096
			c0-3.682,2.985-6.676,6.664-6.676l0,0c3.681,0,6.686,2.994,6.686,6.676V-284.963z"/>
	</g>
	<g>
		<path fill="#353732" d="M454.574-369.24c0,3.676-2.995,6.666-6.67,6.666c-3.691,0-6.68-2.99-6.68-6.666
			c0-3.689,2.988-6.67,6.68-6.67C451.579-375.91,454.574-372.93,454.574-369.24z"/>
	</g>
</g>
<g>
	<g>
		<path fill="#EE5145" d="M2209.367,515.364c0,2.332-1.895,4.225-4.225,4.225l0,0c-2.334,0-4.227-1.893-4.227-4.225v-44.183
			c0-2.33,1.893-4.215,4.227-4.215l0,0c2.33,0,4.225,1.885,4.225,4.215V515.364z"/>
	</g>
	<g>
		<path fill="#EE5145" d="M2225.25,530.274c0,2.334-1.9,4.223-4.223,4.223l0,0c-2.334,0-4.223-1.889-4.223-4.223v-38.227
			c0-2.326,1.889-4.211,4.223-4.211l0,0c2.322,0,4.223,1.885,4.223,4.211V530.274z"/>
	</g>
	<g>
		<path fill="#EE5145" d="M2242.626,518.88c0,2.334-1.9,4.227-4.227,4.227l0,0c-2.33,0-4.219-1.893-4.219-4.227v-53.125
			c0-2.33,1.889-4.223,4.219-4.223l0,0c2.326,0,4.227,1.893,4.227,4.223V518.88z"/>
	</g>
	<g>
		<path fill="#EE5145" d="M2260.497,527.3c0,2.326-1.894,4.215-4.224,4.215l0,0c-2.335,0-4.221-1.889-4.221-4.215v-47.173
			c0-2.33,1.886-4.219,4.221-4.219l0,0c2.33,0,4.224,1.889,4.224,4.219V527.3z"/>
	</g>
	<g>
		<path fill="#EE5145" d="M2242.626,451.72c0,2.328-1.893,4.221-4.219,4.221c-2.334,0-4.227-1.893-4.227-4.221
			c0-2.334,1.893-4.219,4.227-4.219C2240.733,447.501,2242.626,449.386,2242.626,451.72z"/>
	</g>
	<g>
		<path fill="#EE5145" d="M2276.003,493.649c0,2.33-1.896,4.227-4.22,4.227c-2.337,0-4.223-1.896-4.223-4.227
			c0-2.332,1.886-4.217,4.223-4.217C2274.106,489.433,2276.003,491.317,2276.003,493.649z"/>
	</g>
	<g>
		<path fill="#EE5145" d="M2193.94,493.653c0,2.334-1.901,4.223-4.225,4.223c-2.33,0-4.223-1.889-4.223-4.223
			c0-2.336,1.893-4.221,4.223-4.221C2192.039,489.433,2193.94,491.317,2193.94,493.653z"/>
	</g>
</g>
<g>
	<path fill="#EE5145" d="M2230.747,577.589c-46.701,0-84.7-37.992-84.7-84.698c0-46.705,37.999-84.698,84.7-84.698
		c46.703,0,84.702,37.993,84.702,84.698C2315.449,539.597,2277.45,577.589,2230.747,577.589z M2230.747,415.662
		c-42.583,0-77.228,34.647-77.228,77.229s34.645,77.229,77.228,77.229c42.585,0,77.229-34.648,77.229-77.229
		S2273.332,415.662,2230.747,415.662z"/>
</g>
<path fill="#FFFFFF" d="M2402.547,515.959h-8.479v-5.901c-3.66,4.375-8.566,6.568-14.72,6.568c-4.603,0-8.412-1.305-11.434-3.908
	c-3.022-2.604-4.529-6.085-4.529-10.436c0-4.35,1.605-7.607,4.823-9.772c3.211-2.162,7.562-3.239,13.052-3.239h12.058v-1.662
	c0-5.88-3.271-8.813-9.812-8.813c-4.103,0-8.374,1.494-12.808,4.486l-4.154-5.817c5.377-4.271,11.476-6.405,18.293-6.405
	c5.21,0,9.465,1.317,12.765,3.95c3.298,2.631,4.945,6.779,4.945,12.429V515.959z M2393.234,499.497v-3.742h-10.479
	c-6.705,0-10.062,2.108-10.062,6.319c0,2.156,0.832,3.81,2.493,4.945c1.665,1.14,3.981,1.708,6.944,1.708
	c2.964,0,5.56-0.833,7.776-2.494C2392.125,504.567,2393.234,502.322,2393.234,499.497z"/>
<path fill="#FFFFFF" d="M2446.446,495.673v-23.947h9.315v44.233h-9.315v-8.064c-1.493,2.715-3.558,4.846-6.194,6.402
	c-2.633,1.553-5.471,2.329-8.52,2.329c-4.987,0-9.021-1.529-12.097-4.572c-3.078-3.053-4.618-7.459-4.618-13.221v-27.107h9.315
	v24.28c0,8.146,3.384,12.223,10.142,12.223c3.214,0,6.016-1.07,8.397-3.204C2445.257,502.891,2446.446,499.771,2446.446,495.673z"/>
<path fill="#FFFFFF" d="M2472.639,510.306c-4.158-4.215-6.232-9.758-6.232-16.629c0-6.874,2.131-12.364,6.401-16.468
	c4.268-4.1,9.355-6.15,15.255-6.15c5.906,0,10.657,2.494,14.264,7.483v-24.278h9.31v61.695h-9.31v-6.65
	c-3.438,4.876-8.455,7.317-15.054,7.317C2481.677,516.626,2476.799,514.522,2472.639,510.306z M2475.715,494.051
	c0,4.238,1.36,7.69,4.077,10.35c2.715,2.658,5.905,3.99,9.56,3.99c3.663,0,6.766-1.342,9.315-4.031
	c2.55-2.69,3.825-6.137,3.825-10.349c0-4.215-1.275-7.733-3.825-10.562c-2.55-2.83-5.685-4.245-9.395-4.245
	c-3.718,0-6.901,1.415-9.567,4.245C2477.046,486.277,2475.715,489.809,2475.715,494.051z"/>
<path fill="#FFFFFF" d="M2584.896,510.013c-4.438,4.406-9.98,6.613-16.63,6.613c-6.653,0-12.193-2.207-16.63-6.613
	c-4.437-4.408-6.656-9.795-6.656-16.173c0-6.373,2.22-11.761,6.656-16.168c4.437-4.41,9.977-6.613,16.63-6.613
	c6.649,0,12.192,2.203,16.63,6.613c4.436,4.407,6.649,9.795,6.649,16.168C2591.546,500.218,2589.332,505.604,2584.896,510.013z
	 M2558.247,504.278c2.633,2.689,5.973,4.032,10.02,4.032s7.387-1.343,10.02-4.032c2.633-2.69,3.95-6.168,3.95-10.438
	c0-4.265-1.317-7.748-3.95-10.433c-2.633-2.689-5.973-4.03-10.02-4.03s-7.387,1.341-10.02,4.03c-2.633,2.685-3.95,6.168-3.95,10.433
	C2554.297,498.11,2555.614,501.588,2558.247,504.278z"/>
<path fill="#EE5145" d="M2639.277,502.652c2.659,3.105,6.26,4.658,10.809,4.658c4.545,0,8.149-1.553,10.809-4.658
	c2.659-3.099,3.994-7.313,3.994-12.633v-32.181h9.804v32.59c0,8.373-2.3,14.816-6.897,19.336
	c-4.602,4.516-10.505,6.775-17.709,6.775c-7.209,0-13.111-2.26-17.713-6.775c-4.599-4.52-6.898-10.963-6.898-19.336v-32.59h9.809
	v32.181C2635.283,495.339,2636.611,499.554,2639.277,502.652z"/>
<path fill="#EE5145" d="M2724.502,515.959l-14.301-21.869h-0.416l-14.304,21.869h-12.224l19.96-29.85l-18.542-28.271h12.14
	l12.97,19.625h0.416l12.973-19.625h12.137l-18.539,28.271l19.953,29.85H2724.502z"/>
<g>
	<g>
		<path fill="#EE5145" d="M2533.986,511.738c0,2.33-1.898,4.221-4.225,4.221l0,0c-2.324,0-4.211-1.891-4.211-4.221v-39.044
			c0-2.327,1.887-4.219,4.211-4.219l0,0c2.326,0,4.225,1.892,4.225,4.219V511.738z"/>
	</g>
	<g>
		<path fill="#EE5145" d="M2533.986,458.677c0,2.322-1.893,4.212-4.215,4.212c-2.332,0-4.221-1.89-4.221-4.212
			c0-2.332,1.889-4.216,4.221-4.216C2532.094,454.461,2533.986,456.345,2533.986,458.677z"/>
	</g>
</g>
</svg>
